# Blender v2.69 (sub 0) OBJ File: 'cube.blend'
# www.blender.org
mtllib cube_1.mtl
o Cube.001
v 0.242166 -1.190095 2.897890
v 0.242166 -1.190095 3.985386
v -0.845331 -1.190095 3.985386
v -0.845330 -1.190095 2.897890
v 0.242166 -0.102599 2.897890
v 0.242166 -0.102599 3.985386
v -0.845331 -0.102599 3.985386
v -0.845330 -0.102599 2.897890
vt 0.749956 0.500001
vt 0.749956 0.250044
vt 0.999913 0.500001
vt 0.500000 0.500001
vt 0.250043 0.500002
vt 0.499999 0.250045
vt 0.749956 0.000087
vt 0.999913 0.250044
vt 0.000087 0.250047
vt 0.250043 0.250046
vt 0.000087 0.500003
vt 0.749956 0.749958
vt 0.999913 0.749958
vt 0.999913 0.000087
vn 0.000000 -1.000000 0.000000
vn 0.000000 1.000000 -0.000000
vn 1.000000 -0.000000 0.000000
vn 0.000000 -0.000000 1.000000
vn -1.000000 -0.000000 -0.000000
vn 0.000000 0.000000 -1.000000
vn -0.000001 -0.000000 1.000000
usemtl Material
s off
f 1/1/1 2/2/1 4/3/1
f 5/4/2 8/5/2 6/6/2
f 1/1/3 5/4/3 2/2/3
f 2/2/4 6/7/4 3/8/4
f 3/9/5 7/10/5 4/11/5
f 5/12/6 1/1/6 8/13/6
f 2/2/1 3/8/1 4/3/1
f 8/5/2 7/10/2 6/6/2
f 5/4/3 6/6/3 2/2/3
f 6/7/7 7/14/7 3/8/7
f 7/10/5 8/5/5 4/11/5
f 1/1/6 4/3/6 8/13/6
o Cube
v 1.000000 -1.000000 -1.000000
v 1.000000 -1.000000 1.000000
v -1.000000 -1.000000 1.000000
v -1.000000 -1.000000 -1.000000
v 1.000000 1.000000 -0.999999
v 0.999999 1.000000 1.000001
v -1.000000 1.000000 1.000000
v -1.000000 1.000000 -1.000000
vt 0.749956 0.500001
vt 0.749956 0.250044
vt 0.999913 0.500001
vt 0.500000 0.500001
vt 0.250043 0.500002
vt 0.499999 0.250045
vt 0.749956 0.000087
vt 0.999913 0.250044
vt 0.000087 0.250047
vt 0.250043 0.250046
vt 0.000087 0.500003
vt 0.749956 0.749958
vt 0.999913 0.749958
vt 0.999913 0.000087
vn 0.000000 -1.000000 0.000000
vn 0.000000 1.000000 0.000000
vn 1.000000 -0.000000 0.000000
vn 0.000000 -0.000000 1.000000
vn -1.000000 -0.000000 -0.000000
vn 0.000000 0.000000 -1.000000
vn 1.000000 0.000000 0.000001
usemtl Material
s off
f 9/15/8 10/16/8 12/17/8
f 13/18/9 16/19/9 14/20/9
f 9/15/10 13/18/10 10/16/10
f 10/16/11 14/21/11 11/22/11
f 11/23/12 15/24/12 12/25/12
f 13/26/13 9/15/13 16/27/13
f 10/16/8 11/22/8 12/17/8
f 16/19/9 15/24/9 14/20/9
f 13/18/14 14/20/14 10/16/14
f 14/21/11 15/28/11 11/22/11
f 15/24/12 16/19/12 12/25/12
f 9/15/13 12/17/13 16/27/13
