ply
format ascii 1.0
comment Created by Blender 2.71 (sub 0) - www.blender.org, source file: 'scene.blend'
element vertex 240
property float x
property float y
property float z
property float nx
property float ny
property float nz
element face 80
property list uchar uint vertex_indices
end_header
17.798389 -1.909030 -14.566593 0.291027 -0.943524 -0.158324
18.611124 -1.371818 -16.274128 0.291027 -0.943524 -0.158324
19.673500 -1.371819 -14.321294 0.291027 -0.943524 -0.158324
19.181105 0.079377 -17.471647 0.135337 -0.661699 -0.737454
18.611124 -1.371818 -16.274128 0.135337 -0.661699 -0.737454
17.238321 -0.203054 -17.574766 0.135337 -0.661699 -0.737454
17.798389 -1.909030 -14.566593 0.240507 -0.943523 0.227862
19.673500 -1.371819 -14.321294 0.240507 -0.943523 0.227862
18.144531 -1.371809 -12.707438 0.240507 -0.943523 0.227862
17.798389 -1.909030 -14.566593 -0.142387 -0.943523 0.299150
18.144531 -1.371809 -12.707438 -0.142387 -0.943523 0.299150
16.137201 -1.371819 -13.662899 -0.142387 -0.943523 0.299150
17.798389 -1.909030 -14.566593 -0.328506 -0.943524 -0.042978
16.137201 -1.371819 -13.662899 -0.328506 -0.943524 -0.042978
16.425589 -1.371818 -15.867222 -0.328506 -0.943524 -0.042978
19.181105 0.079377 -17.471647 0.097857 -0.330385 -0.938760
17.238321 -0.203054 -17.574766 0.097857 -0.330385 -0.938760
18.264982 1.688071 -18.133305 0.097857 -0.330385 -0.938760
20.988541 0.079376 -14.149262 0.923052 -0.330386 -0.197027
20.486250 -0.203061 -16.028839 0.923052 -0.330386 -0.197027
21.334721 1.688071 -15.224995 0.923052 -0.330386 -0.197027
18.387281 0.079391 -11.403605 0.472619 -0.330384 0.816993
20.019650 -0.203055 -12.462126 0.472619 -0.330384 0.816993
19.517338 1.688071 -11.406792 0.472619 -0.330384 0.816993
14.972185 0.079376 -13.029125 -0.630960 -0.330388 0.701949
16.483339 -0.203055 -11.803728 -0.630960 -0.330388 0.701949
15.324436 1.688071 -11.955330 -0.630960 -0.330388 0.701949
15.462826 0.079377 -16.779371 -0.862570 -0.330387 -0.383167
14.764382 -0.203061 -14.963531 -0.862570 -0.330387 -0.383167
14.550439 1.688071 -16.112541 -0.862570 -0.330387 -0.383167
19.181105 0.079377 -17.471647 0.426368 -0.125628 -0.895783
18.264982 1.688071 -18.133305 0.426368 -0.125628 -0.895783
20.272343 1.688071 -17.177856 0.426368 -0.125628 -0.895783
20.988541 0.079376 -14.149262 0.983695 -0.125629 0.128690
21.334721 1.688071 -15.224995 0.983695 -0.125629 0.128690
21.046341 1.688071 -13.020646 0.983695 -0.125629 0.128690
18.387281 0.079391 -11.403605 0.181587 -0.125628 0.975317
19.517338 1.688071 -11.406792 0.181587 -0.125628 0.975317
17.331797 1.688071 -10.999883 0.181587 -0.125628 0.975317
14.972185 0.079376 -13.029125 -0.871469 -0.125629 0.474088
15.324436 1.688071 -11.955330 -0.871469 -0.125629 0.474088
14.262058 1.688071 -13.908192 -0.871469 -0.125629 0.474088
15.462826 0.079377 -16.779371 -0.720182 -0.125627 -0.682317
14.550439 1.688071 -16.112541 -0.720182 -0.125627 -0.682317
16.079441 1.688071 -17.726395 -0.720182 -0.125627 -0.682317
20.624594 3.296766 -16.104061 0.542956 0.661699 -0.517062
19.113440 3.579197 -17.329458 0.542956 0.661699 -0.517062
19.459578 4.747961 -15.470287 0.542956 0.661699 -0.517062
20.133953 3.296765 -12.353816 0.659537 0.661698 0.356605
20.832396 3.579202 -14.169656 0.659537 0.661698 0.356605
19.171190 4.747960 -13.265965 0.659537 0.661698 0.356605
16.415674 3.296765 -11.661539 -0.135337 0.661699 0.737454
18.358458 3.579196 -11.558420 -0.135337 0.661699 0.737454
16.985655 4.747960 -12.859057 -0.135337 0.661699 0.737454
14.608237 3.296766 -14.983924 -0.743182 0.661699 0.099175
15.110529 3.579202 -13.104347 -0.743182 0.661699 0.099175
15.923279 4.747961 -14.811893 -0.743182 0.661699 0.099175
17.209497 3.296751 -17.729582 -0.323973 0.661695 -0.676166
15.577129 3.579197 -16.671061 -0.323973 0.661695 -0.676166
17.452248 4.747951 -16.425749 -0.323973 0.661695 -0.676166
19.673500 -1.371819 -14.321294 0.743182 -0.661698 -0.099174
20.486250 -0.203061 -16.028839 0.743182 -0.661698 -0.099174
20.988541 0.079376 -14.149262 0.743182 -0.661698 -0.099174
19.673500 -1.371819 -14.321294 0.533255 -0.794658 -0.290100
18.611124 -1.371818 -16.274128 0.533255 -0.794658 -0.290100
20.486250 -0.203061 -16.028839 0.533255 -0.794658 -0.290100
18.611124 -1.371818 -16.274128 0.487006 -0.661699 -0.570070
19.181105 0.079377 -17.471647 0.487006 -0.661699 -0.570070
20.486250 -0.203061 -16.028839 0.487006 -0.661699 -0.570070
17.238321 -0.203054 -17.574766 -0.391670 -0.661699 -0.639335
16.425589 -1.371818 -15.867222 -0.391670 -0.661699 -0.639335
15.462826 0.079377 -16.779371 -0.391670 -0.661699 -0.639335
17.238321 -0.203054 -17.574766 -0.111114 -0.794656 -0.596805
18.611124 -1.371818 -16.274128 -0.111114 -0.794656 -0.596805
16.425589 -1.371818 -15.867222 -0.111114 -0.794656 -0.596805
18.611124 -1.371818 -16.274128 -0.060641 -0.943524 -0.325708
17.798389 -1.909030 -14.566593 -0.060641 -0.943524 -0.325708
16.425589 -1.371818 -15.867222 -0.060641 -0.943524 -0.325708
18.144531 -1.371809 -12.707438 0.323973 -0.661695 0.676166
20.019650 -0.203055 -12.462126 0.323973 -0.661695 0.676166
18.387281 0.079391 -11.403605 0.323973 -0.661695 0.676166
18.144531 -1.371809 -12.707438 0.440686 -0.794657 0.417511
19.673500 -1.371819 -14.321294 0.440686 -0.794657 0.417511
20.019650 -0.203055 -12.462126 0.440686 -0.794657 0.417511
19.673500 -1.371819 -14.321294 0.692661 -0.661698 0.287012
20.988541 0.079376 -14.149262 0.692661 -0.661698 0.287012
20.019650 -0.203055 -12.462126 0.692661 -0.661698 0.287012
16.137201 -1.371819 -13.662899 -0.542957 -0.661699 0.517062
16.483339 -0.203055 -11.803728 -0.542957 -0.661699 0.517062
14.972185 0.079376 -13.029125 -0.542957 -0.661699 0.517062
16.137201 -1.371819 -13.662899 -0.260900 -0.794658 0.548134
18.144531 -1.371809 -12.707438 -0.260900 -0.794658 0.548134
16.483339 -0.203055 -11.803728 -0.260900 -0.794658 0.548134
18.144531 -1.371809 -12.707438 -0.058920 -0.661695 0.747454
18.387281 0.079391 -11.403605 -0.058920 -0.661695 0.747454
16.483339 -0.203055 -11.803728 -0.058920 -0.661695 0.747454
16.425589 -1.371818 -15.867222 -0.659536 -0.661699 -0.356605
14.764382 -0.203061 -14.963531 -0.659536 -0.661699 -0.356605
15.462826 0.079377 -16.779371 -0.659536 -0.661699 -0.356605
16.425589 -1.371818 -15.867222 -0.601928 -0.794658 -0.078749
16.137201 -1.371819 -13.662899 -0.601928 -0.794658 -0.078749
14.764382 -0.203061 -14.963531 -0.601928 -0.794658 -0.078749
16.137201 -1.371819 -13.662899 -0.729077 -0.661699 0.174933
14.972185 0.079376 -13.029125 -0.729077 -0.661699 0.174933
14.764382 -0.203061 -14.963531 -0.729077 -0.661699 0.174933
18.264982 1.688071 -18.133305 -0.181587 0.125628 -0.975317
16.079441 1.688071 -17.726395 -0.181587 0.125628 -0.975317
17.209497 3.296751 -17.729582 -0.181587 0.125628 -0.975317
18.264982 1.688071 -18.133305 -0.179788 -0.187599 -0.965652
17.238321 -0.203054 -17.574766 -0.179788 -0.187599 -0.965652
16.079441 1.688071 -17.726395 -0.179788 -0.187599 -0.965652
17.238321 -0.203054 -17.574766 -0.429149 -0.330384 -0.840641
15.462826 0.079377 -16.779371 -0.429149 -0.330384 -0.840641
16.079441 1.688071 -17.726395 -0.429149 -0.330384 -0.840641
21.334721 1.688071 -15.224995 0.871469 0.125629 -0.474088
20.272343 1.688071 -17.177856 0.871469 0.125629 -0.474088
20.624594 3.296766 -16.104061 0.871469 0.125629 -0.474088
21.334721 1.688071 -15.224995 0.862832 -0.187597 -0.469390
20.486250 -0.203061 -16.028839 0.862832 -0.187597 -0.469390
20.272343 1.688071 -17.177856 0.862832 -0.187597 -0.469390
20.486250 -0.203061 -16.028839 0.666876 -0.330387 -0.667923
19.181105 0.079377 -17.471647 0.666876 -0.330387 -0.667923
20.272343 1.688071 -17.177856 0.666876 -0.330387 -0.667923
19.517338 1.688071 -11.406792 0.720182 0.125627 0.682317
21.046341 1.688071 -13.020646 0.720182 0.125627 0.682317
20.133953 3.296765 -12.353816 0.720182 0.125627 0.682317
19.517338 1.688071 -11.406792 0.713045 -0.187595 0.675555
20.019650 -0.203055 -12.462126 0.713045 -0.187595 0.675555
21.046341 1.688071 -13.020646 0.713045 -0.187595 0.675555
20.019650 -0.203055 -12.462126 0.841307 -0.330388 0.427839
20.988541 0.079376 -14.149262 0.841307 -0.330388 0.427839
21.046341 1.688071 -13.020646 0.841307 -0.330388 0.427839
15.324436 1.688071 -11.955330 -0.426368 0.125627 0.895784
17.331797 1.688071 -10.999883 -0.426368 0.125627 0.895784
16.415674 3.296765 -11.661539 -0.426368 0.125627 0.895784
15.324436 1.688071 -11.955330 -0.422143 -0.187595 0.886907
16.483339 -0.203055 -11.803728 -0.422143 -0.187595 0.886907
17.331797 1.688071 -10.999883 -0.422143 -0.187595 0.886907
16.483339 -0.203055 -11.803728 -0.146924 -0.330385 0.932341
18.387281 0.079391 -11.403605 -0.146924 -0.330385 0.932341
17.331797 1.688071 -10.999883 -0.146924 -0.330385 0.932341
14.550439 1.688071 -16.112541 -0.983695 0.125629 -0.128690
14.262058 1.688071 -13.908192 -0.983695 0.125629 -0.128690
14.608237 3.296766 -14.983924 -0.983695 0.125629 -0.128690
14.550439 1.688071 -16.112541 -0.973947 -0.187597 -0.127415
14.764382 -0.203061 -14.963531 -0.973947 -0.187597 -0.127415
14.262058 1.688071 -13.908192 -0.973947 -0.187597 -0.127415
14.764382 -0.203061 -14.963531 -0.932111 -0.330386 0.148370
14.972185 0.079376 -13.029125 -0.932111 -0.330386 0.148370
14.262058 1.688071 -13.908192 -0.932111 -0.330386 0.148370
20.272343 1.688071 -17.177856 0.630960 0.330388 -0.701949
19.113440 3.579197 -17.329458 0.630960 0.330388 -0.701949
20.624594 3.296766 -16.104061 0.630960 0.330388 -0.701949
20.272343 1.688071 -17.177856 0.422143 0.187595 -0.886907
18.264982 1.688071 -18.133305 0.422143 0.187595 -0.886907
19.113440 3.579197 -17.329458 0.422143 0.187595 -0.886907
18.264982 1.688071 -18.133305 0.146924 0.330385 -0.932341
17.209497 3.296751 -17.729582 0.146924 0.330385 -0.932341
19.113440 3.579197 -17.329458 0.146924 0.330385 -0.932341
21.046341 1.688071 -13.020646 0.862570 0.330387 0.383167
20.832396 3.579202 -14.169656 0.862570 0.330387 0.383167
20.133953 3.296765 -12.353816 0.862570 0.330387 0.383167
21.046341 1.688071 -13.020646 0.973947 0.187598 0.127415
21.334721 1.688071 -15.224995 0.973947 0.187598 0.127415
20.832396 3.579202 -14.169656 0.973947 0.187598 0.127415
21.334721 1.688071 -15.224995 0.932111 0.330386 -0.148370
20.624594 3.296766 -16.104061 0.932111 0.330386 -0.148370
20.832396 3.579202 -14.169656 0.932111 0.330386 -0.148370
17.331797 1.688071 -10.999883 -0.097857 0.330385 0.938760
18.358458 3.579196 -11.558420 -0.097857 0.330385 0.938760
16.415674 3.296765 -11.661539 -0.097857 0.330385 0.938760
17.331797 1.688071 -10.999883 0.179787 0.187598 0.965652
19.517338 1.688071 -11.406792 0.179787 0.187598 0.965652
18.358458 3.579196 -11.558420 0.179787 0.187598 0.965652
19.517338 1.688071 -11.406792 0.429150 0.330384 0.840641
20.133953 3.296765 -12.353816 0.429150 0.330384 0.840641
18.358458 3.579196 -11.558420 0.429150 0.330384 0.840641
14.262058 1.688071 -13.908192 -0.923052 0.330386 0.197028
15.110529 3.579202 -13.104347 -0.923052 0.330386 0.197028
14.608237 3.296766 -14.983924 -0.923052 0.330386 0.197028
14.262058 1.688071 -13.908192 -0.862833 0.187597 0.469390
15.324436 1.688071 -11.955330 -0.862833 0.187597 0.469390
15.110529 3.579202 -13.104347 -0.862833 0.187597 0.469390
15.324436 1.688071 -11.955330 -0.666876 0.330387 0.667923
16.415674 3.296765 -11.661539 -0.666876 0.330387 0.667923
15.110529 3.579202 -13.104347 -0.666876 0.330387 0.667923
16.079441 1.688071 -17.726395 -0.472619 0.330384 -0.816993
15.577129 3.579197 -16.671061 -0.472619 0.330384 -0.816993
17.209497 3.296751 -17.729582 -0.472619 0.330384 -0.816993
16.079441 1.688071 -17.726395 -0.713045 0.187595 -0.675555
14.550439 1.688071 -16.112541 -0.713045 0.187595 -0.675555
15.577129 3.579197 -16.671061 -0.713045 0.187595 -0.675555
14.550439 1.688071 -16.112541 -0.841307 0.330388 -0.427840
14.608237 3.296766 -14.983924 -0.841307 0.330388 -0.427840
15.577129 3.579197 -16.671061 -0.841307 0.330388 -0.427840
19.459578 4.747961 -15.470287 0.142387 0.943523 -0.299150
17.452248 4.747951 -16.425749 0.142387 0.943523 -0.299150
17.798389 5.285172 -14.566593 0.142387 0.943523 -0.299150
19.459578 4.747961 -15.470287 0.260900 0.794657 -0.548134
19.113440 3.579197 -17.329458 0.260900 0.794657 -0.548134
17.452248 4.747951 -16.425749 0.260900 0.794657 -0.548134
19.113440 3.579197 -17.329458 0.058920 0.661695 -0.747454
17.209497 3.296751 -17.729582 0.058920 0.661695 -0.747454
17.452248 4.747951 -16.425749 0.058920 0.661695 -0.747454
19.171190 4.747960 -13.265965 0.328506 0.943523 0.042978
19.459578 4.747961 -15.470287 0.328506 0.943523 0.042978
17.798389 5.285172 -14.566593 0.328506 0.943523 0.042978
19.171190 4.747960 -13.265965 0.601929 0.794657 0.078749
20.832396 3.579202 -14.169656 0.601929 0.794657 0.078749
19.459578 4.747961 -15.470287 0.601929 0.794657 0.078749
20.832396 3.579202 -14.169656 0.729077 0.661699 -0.174933
20.624594 3.296766 -16.104061 0.729077 0.661699 -0.174933
19.459578 4.747961 -15.470287 0.729077 0.661699 -0.174933
16.985655 4.747960 -12.859057 0.060641 0.943524 0.325707
19.171190 4.747960 -13.265965 0.060641 0.943524 0.325707
17.798389 5.285172 -14.566593 0.060641 0.943524 0.325707
16.985655 4.747960 -12.859057 0.111114 0.794655 0.596805
18.358458 3.579196 -11.558420 0.111114 0.794655 0.596805
19.171190 4.747960 -13.265965 0.111114 0.794655 0.596805
18.358458 3.579196 -11.558420 0.391670 0.661699 0.639335
20.133953 3.296765 -12.353816 0.391670 0.661699 0.639335
19.171190 4.747960 -13.265965 0.391670 0.661699 0.639335
15.923279 4.747961 -14.811893 -0.291027 0.943523 0.158324
16.985655 4.747960 -12.859057 -0.291027 0.943523 0.158324
17.798389 5.285172 -14.566593 -0.291027 0.943523 0.158324
15.923279 4.747961 -14.811893 -0.533255 0.794658 0.290100
15.110529 3.579202 -13.104347 -0.533255 0.794658 0.290100
16.985655 4.747960 -12.859057 -0.533255 0.794658 0.290100
15.110529 3.579202 -13.104347 -0.487006 0.661698 0.570070
16.415674 3.296765 -11.661539 -0.487006 0.661698 0.570070
16.985655 4.747960 -12.859057 -0.487006 0.661698 0.570070
17.452248 4.747951 -16.425749 -0.240507 0.943523 -0.227862
15.923279 4.747961 -14.811893 -0.240507 0.943523 -0.227862
17.798389 5.285172 -14.566593 -0.240507 0.943523 -0.227862
17.452248 4.747951 -16.425749 -0.440686 0.794657 -0.417511
15.577129 3.579197 -16.671061 -0.440686 0.794657 -0.417511
15.923279 4.747961 -14.811893 -0.440686 0.794657 -0.417511
15.577129 3.579197 -16.671061 -0.692661 0.661698 -0.287013
14.608237 3.296766 -14.983924 -0.692661 0.661698 -0.287013
15.923279 4.747961 -14.811893 -0.692661 0.661698 -0.287013
3 0 1 2
3 3 4 5
3 6 7 8
3 9 10 11
3 12 13 14
3 15 16 17
3 18 19 20
3 21 22 23
3 24 25 26
3 27 28 29
3 30 31 32
3 33 34 35
3 36 37 38
3 39 40 41
3 42 43 44
3 45 46 47
3 48 49 50
3 51 52 53
3 54 55 56
3 57 58 59
3 60 61 62
3 63 64 65
3 66 67 68
3 69 70 71
3 72 73 74
3 75 76 77
3 78 79 80
3 81 82 83
3 84 85 86
3 87 88 89
3 90 91 92
3 93 94 95
3 96 97 98
3 99 100 101
3 102 103 104
3 105 106 107
3 108 109 110
3 111 112 113
3 114 115 116
3 117 118 119
3 120 121 122
3 123 124 125
3 126 127 128
3 129 130 131
3 132 133 134
3 135 136 137
3 138 139 140
3 141 142 143
3 144 145 146
3 147 148 149
3 150 151 152
3 153 154 155
3 156 157 158
3 159 160 161
3 162 163 164
3 165 166 167
3 168 169 170
3 171 172 173
3 174 175 176
3 177 178 179
3 180 181 182
3 183 184 185
3 186 187 188
3 189 190 191
3 192 193 194
3 195 196 197
3 198 199 200
3 201 202 203
3 204 205 206
3 207 208 209
3 210 211 212
3 213 214 215
3 216 217 218
3 219 220 221
3 222 223 224
3 225 226 227
3 228 229 230
3 231 232 233
3 234 235 236
3 237 238 239
