# Blender v2.69 (sub 0) OBJ File: 'cube.blend'
# www.blender.org
mtllib cube.mtl
o Cube
v 1.000000 -1.000000 -1.000000
v 1.000000 -1.000000 1.000000
v -1.000000 -1.000000 1.000000
v -1.000000 -1.000000 -1.000000
v 1.000000 0.015754 -0.999999
v 0.999999 1.000000 1.000001
v -1.000000 1.000000 1.000000
v -1.000000 1.000000 -1.000000
vt 0.749956 0.500001
vt 0.749956 0.250044
vt 0.999913 0.500001
vt 0.500000 0.500001
vt 0.250043 0.500002
vt 0.250043 0.250046
vt 0.499999 0.250045
vt 0.749956 0.000087
vt 0.999913 0.250044
vt 0.000087 0.250047
vt 0.000087 0.500003
vt 0.749956 0.749958
vt 0.999913 0.749958
vt 0.999913 0.000087
vn 0.000000 -1.000000 0.000000
vn 0.441551 0.897236 0.000000
vn 1.000000 -0.000000 0.000001
vn 0.000000 -0.000000 1.000000
vn -1.000000 -0.000000 -0.000000
vn 0.000001 0.000000 -1.000000
vn 0.000000 0.897236 -0.441551
vn 1.000000 0.000000 0.000000
vn 0.000000 0.000000 -1.000000
usemtl Material
s off
f 1/1/1 2/2/1 4/3/1
f 5/4/2 8/5/2 7/6/2
f 1/1/3 5/4/3 6/7/3
f 2/2/4 6/8/4 3/9/4
f 3/10/5 7/6/5 4/11/5
f 5/12/6 1/1/6 8/13/6
f 2/2/1 3/9/1 4/3/1
f 6/7/7 5/4/7 7/6/7
f 2/2/8 1/1/8 6/7/8
f 6/8/4 7/14/4 3/9/4
f 7/6/5 8/5/5 4/11/5
f 1/1/9 4/3/9 8/13/9
